<?xml version="1.0" encoding="iso-8859-1"?>
<!-- Uploaded to: SVG Repo, www.svgrepo.com, Generator: SVG Repo Mixer Tools -->
<!DOCTYPE svg PUBLIC "-//W3C//DTD SVG 1.1//EN" "http://www.w3.org/Graphics/SVG/1.1/DTD/svg11.dtd">
<svg fill="#000000" height="800px" width="800px" version="1.1" id="Capa_1" xmlns="http://www.w3.org/2000/svg" xmlns:xlink="http://www.w3.org/1999/xlink" 
	 viewBox="0 0 416.408 416.408" xml:space="preserve">
<g>
	<path d="M415.414,180.501c-3.213-21.4-14.248-42.557-32.797-62.882c-9.335-10.231-20.262-17.111-32.619-20.625
		c-0.982-10.91-4.825-19.481-11.468-25.501c-10.725-9.718-24.695-8.866-25.283-8.825c-2.746,0.191-4.809,2.563-4.631,5.31
		c0.179,2.746,2.559,4.825,5.301,4.667c0.107-0.006,10.469-0.541,17.975,6.328c4.089,3.741,6.688,9.083,7.777,15.916
		c-3.222-0.411-6.519-0.64-9.908-0.64c-0.705,0-1.411,0.026-2.118,0.044c-5.874-3.693-27.58-14.669-60.675-0.571
		c-2.541,1.082-3.724,4.019-2.642,6.56c1.083,2.542,4.023,3.722,6.56,2.641c14.773-6.293,26.719-6.915,35.451-5.667
		c-29.964,7.325-59.251,26.778-80.358,43.671c-18.323,14.665-36.406,32.111-52.156,50.075c-4.523-3.744-8.798-6.868-12.84-9.387
		c12.785-4.594,30.968-14.1,35.064-31.77c2.825-0.493,5.366-1.316,7.452-2.568c2.368-1.421,3.136-4.492,1.715-6.86
		c-1.421-2.367-4.492-3.136-6.859-1.715c-10.082,6.049-42.474-4.405-47.209-9.178c0.206-2.169,3.654-6.759,7.606-9.991
		c2.139-1.742,2.463-4.888,0.723-7.029c-1.74-2.142-4.889-2.469-7.034-0.728c-2.172,1.765-12.915,11.033-11.083,20.195
		c0.51,2.551,2.389,6.051,12.472,10.511c8.366,3.7,20.683,7.178,31.619,7.822c-6.345,16.702-32.065,23.515-38.006,24.878
		c-6.915-2.1-12.96-1.833-18.21,0.783c-18.154,9.047-16.236,42.299-15.958,46.061c0.194,2.628,2.387,4.629,4.98,4.629
		c0.123,0,0.247-0.005,0.371-0.014c2.753-0.202,4.821-2.598,4.621-5.35c-0.006-0.08-0.563-8.067,0.71-16.767
		c1.063-7.265,3.615-16.564,9.743-19.612c6.885-3.422,18.737,1.435,33.62,13.697c-7.9,9.483-15.076,19.021-21.222,28.287
		c-5.314,8.009-10.155,15.754-14.641,23.197c-33.312-20.877-81.981-39.563-98.116-45.506c1.259-2.436,2.545-4.829,3.853-7.16
		c4.595-8.186,9.255-15.314,13.725-21.462c5.456,1.687,15.816,4.429,25.523,4.429c6.585,0,12.869-1.263,17.111-4.975
		c5.203-4.552,8.815-11.666,12.309-18.545c2.816-5.545,7.068-13.952,9.778-13.59c3.42,0.427,10.064,5.531,15.404,9.631
		c9.517,7.308,18.5,14.209,26.233,11.449c1.288-0.46,2.585-1.019,3.853-1.661c2.465-1.246,3.452-4.254,2.206-6.718
		c-1.245-2.464-4.256-3.453-6.718-2.206c-0.898,0.454-1.81,0.847-2.706,1.167c-2.585,0.93-12.174-6.428-16.777-9.963
		c-7.271-5.584-14.14-10.858-20.255-11.623c-9.674-1.204-14.892,9.056-19.935,18.984c-3.063,6.032-6.23,12.269-9.979,15.548
		c-4.781,4.183-18.394,2.56-29.505-0.434c7.363-9.038,13.742-15.153,17.777-18.673c0.351,2.867,0.428,5.879,0.057,8.935
		c-0.332,2.742,1.621,5.233,4.362,5.566c0.204,0.024,0.407,0.037,0.607,0.037c2.493,0,4.65-1.862,4.958-4.398
		c2.262-18.655-8.313-35.283-8.764-35.981c-1.499-2.319-4.593-2.987-6.913-1.487c-2.319,1.498-2.985,4.593-1.487,6.913
		c0.047,0.073,2.463,3.875,4.537,9.61c-5.487,4.234-24.74,21.18-44.124,54.554c-6.774,11.664-16.784,38.911-17.734,41.664
		c-11.216,32.518-13.662,59.705-7.262,80.907c11.708,38.784,31.861,57.637,61.612,57.637c11.167,0,21.714-2.552,31.019-4.804
		c2.053-0.497,4.029-0.975,5.914-1.399c23.211-5.222,220.504-87.431,280.418-112.503c12.45-5.209,22.456-15.23,27.452-27.494
		C415.92,211.745,417.779,196.254,415.414,180.501z M37.24,284.753c-2.716-0.545-5.343,1.215-5.884,3.922
		c-0.683,3.415-2.158,7.839-5.311,9.521c-1.683,0.899-3.562,0.892-4.988,0.677c-3.915-16.982-4.354-37.292-0.92-56.435
		c2.43-1.688,5.949-3.37,7.052-2.128c1.54,1.731,4.067,2.178,6.107,1.081c2.693-1.449,6.944-0.959,10.585,1.215
		c1.817,1.086,6.045,4.206,6.045,9.716c0,1.855,1.026,3.557,2.667,4.422c1.64,0.866,3.626,0.751,5.156-0.296
		c4.281-2.928,8.016-4.023,11.106-3.254c3.799,0.946,7.491,4.798,10.974,11.447c0.77,1.469,2.218,2.461,3.865,2.648
		c1.655,0.186,3.281-0.455,4.36-1.714c2.521-2.938,8.029-4.031,13.391-2.659c3.363,0.86,11.189,3.975,14.133,14.474
		c-0.243,0.427-0.488,0.858-0.729,1.282c-21.342,37.505-34.224,60.144-58.159,60.144c-1.091,0-2.221-0.047-3.357-0.14
		c-8.477-0.695-15.801-5.441-21.77-14.105c-3.033-4.403-5.58-9.701-7.631-15.621c2.108-0.149,4.399-0.668,6.677-1.854
		c5.379-2.801,8.93-8.338,10.554-16.459C41.704,287.929,39.948,285.294,37.24,284.753z M121.743,266.607
		c-3.998-6.665-10.215-11.433-17.819-13.378c-6.576-1.684-13.159-0.989-18.225,1.699c-4.218-6.319-8.971-10.078-14.427-11.437
		c-4.083-1.018-8.386-0.602-12.849,1.231c-1.766-4.313-5.021-8.077-9.415-10.702c-5.502-3.287-11.939-4.243-17.266-2.721
		c-2.52-1.412-5.552-1.759-8.838-1.029c1.979-7.199,3.859-11.922,6.016-16.645c14.731,5.427,64.604,24.465,97.423,45.064
		C124.77,261.374,123.236,264.016,121.743,266.607z M400.63,222.767c-4,9.818-12.037,17.853-22.051,22.043
		C255.5,296.313,117.638,352.773,99.826,356.781c-1.936,0.436-3.964,0.926-6.07,1.436c-8.762,2.12-18.693,4.523-28.667,4.523
		c-15.791,0-38.367-5.238-52.038-50.526c-1.519-5.029-2.473-10.467-2.864-16.305c2.51,13.377,6.937,25.327,13.143,34.334
		c7.645,11.097,17.736,17.459,29.187,18.399c1.408,0.115,2.813,0.173,4.175,0.173c29.751,0,44.51-25.937,66.851-65.198
		c8.687-15.266,18.532-32.568,30.89-51.195c18.678-28.163,48.487-60.23,77.797-83.689c25.355-20.293,62.859-44.484,97.533-44.484
		c17.995,0,33.294,6.766,45.47,20.11C412.657,165.369,409.701,200.509,400.63,222.767z"/>
	<path d="M65.611,293.813c1.098,0.3,2.225,0.434,3.362,0.434c8.661,0,17.957-7.769,19.928-9.508
		c2.071-1.827,2.269-4.987,0.441-7.058c-1.826-2.07-4.986-2.267-7.057-0.441c-3.808,3.358-11,7.752-14.044,6.926
		c-3.822-1.042-8.025-7.623-9.462-10.647c-1.181-2.494-4.159-3.561-6.649-2.386c-2.499,1.176-3.571,4.155-2.396,6.653
		C50.381,279.159,56.32,291.279,65.611,293.813z"/>
	<path d="M98.448,197.935c8.587-27.576,36.333-26.089,37.55-26.007c2.729,0.19,5.135-1.876,5.335-4.626
		c0.199-2.754-1.871-5.149-4.626-5.349c-12.688-0.928-39.021,4.793-47.806,33.009c-0.437,1.403-0.21,2.844,0.482,4.017
		c-24.312-12.971-41.159-1.35-42.033-0.723c-2.23,1.597-2.738,4.678-1.163,6.924s4.686,2.788,6.946,1.234
		c0.829-0.571,20.654-13.651,48.916,14.767c0.977,0.982,2.261,1.474,3.545,1.474c1.275,0,2.55-0.484,3.525-1.455
		c1.958-1.947,1.967-5.113,0.02-7.071c-5.4-5.43-10.595-9.569-15.523-12.684c0.02,0,0.041,0.005,0.061,0.005
		C95.806,201.45,97.782,200.077,98.448,197.935z"/>
	<path d="M249.998,107.354c1.307-2.433,0.394-5.464-2.04-6.771c-1.615-0.868-39.768-21.031-56.193-1.478
		c-6.382,7.597-6.675,15.85-0.805,22.644c0.988,1.145,2.383,1.731,3.785,1.731c1.158,0,2.322-0.4,3.267-1.217
		c2.09-1.805,2.32-4.963,0.515-7.052c-1.904-2.204-3.114-4.902,0.895-9.674c9.315-11.088,34.782-0.974,43.807,3.855
		C245.661,110.7,248.692,109.788,249.998,107.354z"/>
	<path d="M182.437,132.52c5.897,1.401,11.146,1.988,15.805,1.988c23.579,0,32.009-15.052,32.42-15.816
		c1.31-2.432,0.413-5.489-2.019-6.798c-2.434-1.311-5.45-0.424-6.759,2.007c-0.363,0.637-9.211,15.527-37.135,8.889
		c-2.688-0.638-5.383,1.022-6.021,3.709C178.09,129.187,179.75,131.882,182.437,132.52z"/>
	<path d="M120.28,97.28c0.496,0.065,5.126,0.644,11.523,0.644c10.979,0,27.159-1.706,36.567-10.643
		c1.966-1.868,3.813-3.689,5.6-5.45c10.926-10.768,17.043-16.307,26.021-14.597c2.714,0.513,5.33-1.263,5.848-3.976
		c0.517-2.713-1.264-5.331-3.977-5.847c-14.548-2.771-23.984,6.529-34.91,17.298c-1.755,1.729-3.569,3.518-5.469,5.322
		c-9.488,9.014-32.03,8.349-39.913,7.333c-2.753-0.356-5.245,1.575-5.602,4.312C115.611,94.414,117.541,96.923,120.28,97.28z"/>
	<path d="M88.698,128.664c2.543,1.074,5.476-0.115,6.552-2.659c0.267-0.634,3.569-2.454,14.833,0.225
		c8.391,1.995,16.426,5.367,16.506,5.401c0.635,0.268,1.294,0.395,1.942,0.395c1.949,0,3.803-1.147,4.608-3.056
		c1.074-2.543-0.116-5.476-2.659-6.55c-0.354-0.15-8.789-3.696-17.974-5.892c-14.528-3.474-23.434-1.595-26.468,5.585
		C84.963,124.655,86.154,127.589,88.698,128.664z"/>
	<path d="M99.155,108.532c5.243,1.187,17.704,3.705,28.963,3.705c7.898,0,15.205-1.239,19.011-5.045
		c1.953-1.953,1.953-5.119,0-7.071c-1.951-1.952-5.119-1.952-7.07,0c-2.917,2.916-19.16,3.073-38.695-1.341
		c-2.692-0.607-5.371,1.081-5.979,3.774C94.774,105.246,96.462,107.923,99.155,108.532z"/>
	<path d="M136.645,81.427c0.729,0.375,1.508,0.552,2.275,0.552c1.812,0,3.562-0.988,4.453-2.705
		c0.73-1.409,18.489-34.374,68.48-23.401c2.695,0.591,5.364-1.114,5.956-3.812s-1.114-5.364-3.812-5.956
		c-29.987-6.581-49.94,1.403-61.4,9.26c-12.572,8.622-17.907,18.922-18.128,19.356C133.221,77.176,134.197,80.168,136.645,81.427z"
		/>
	<path d="M188.659,90.835c11.075-8.232,26.078-9.063,44.59-2.469c2.601,0.928,5.462-0.432,6.388-3.032
		c0.927-2.602-0.431-5.461-3.032-6.388c-52.741-18.787-68.227,21.921-68.377,22.334c-0.943,2.595,0.396,5.464,2.99,6.407
		c0.564,0.206,1.142,0.303,1.709,0.303c2.043,0,3.96-1.262,4.699-3.293C177.654,104.62,180.669,96.774,188.659,90.835z"/>
	<path d="M253.93,80.655c13.965,2.592,27.277,3.921,27.838,3.976c0.167,0.017,0.333,0.025,0.497,0.025
		c2.54,0,4.715-1.928,4.97-4.509c0.271-2.748-1.736-5.196-4.483-5.467c-0.125-0.013-12.603-1.259-25.657-3.612
		c-22.941-4.136-26.979-7.921-27.479-8.503c-0.292-1.001-0.094-1.585,0.168-2.066c1.444-2.648,6.71-4.733,9.035-5.329
		c2.672-0.674,4.295-3.385,3.626-6.061c-0.671-2.679-3.384-4.312-6.063-3.638c-1.157,0.289-11.422,3.034-15.358,10.207
		c-1.729,3.149-2.02,6.685-0.839,10.225C221.674,70.377,226.849,75.628,253.93,80.655z"/>
	<path d="M257.489,66.502c0.21-0.053,21.21-5.097,38.25,9.006c0.933,0.772,2.062,1.148,3.185,1.148c1.438,0,2.866-0.618,3.854-1.812
		c1.761-2.127,1.464-5.279-0.664-7.04c-21.054-17.424-46.045-11.261-47.1-10.99c-2.668,0.686-4.271,3.399-3.594,6.07
		C252.098,65.554,254.818,67.172,257.489,66.502z"/>
	<path d="M265.593,198.657c0.54,0,1.091-0.088,1.63-0.274c7.75-2.673,12.969-6.958,15.51-12.737
		c3.451-7.849,0.464-15.174,0.111-15.984c-1.101-2.532-4.045-3.693-6.579-2.592c-2.532,1.101-3.692,4.047-2.591,6.579
		c0.017,0.039,1.618,4.074-0.096,7.971c-1.373,3.123-4.608,5.582-9.615,7.308c-2.61,0.9-3.997,3.747-3.097,6.357
		C261.581,197.357,263.519,198.657,265.593,198.657z"/>
	<path d="M319.722,155.721c-2.532,1.101-3.692,4.047-2.591,6.579c0.026,0.062,2.59,6.305-0.135,12.501
		c-2.114,4.806-6.947,8.541-14.367,11.099c-2.61,0.9-3.997,3.747-3.097,6.357c0.714,2.071,2.652,3.372,4.727,3.372
		c0.54,0,1.09-0.088,1.63-0.274c10.163-3.504,16.979-9.065,20.261-16.527c4.51-10.254,0.332-20.1,0.151-20.514
		C325.201,155.781,322.255,154.618,319.722,155.721z"/>
	<path d="M167.705,267.335c-2.532,1.101-3.702,4.023-2.602,6.556c0.017,0.042,1.668,4.167-0.114,8.106
		c-1.395,3.081-4.616,5.51-9.576,7.22c-2.61,0.9-3.997,3.747-3.097,6.357c0.714,2.071,2.652,3.372,4.727,3.372
		c0.54,0,1.09-0.088,1.63-0.274c7.75-2.672,12.968-6.958,15.51-12.736c3.451-7.849,0.464-15.175,0.111-15.984
		C173.193,267.419,170.239,266.233,167.705,267.335z"/>
	<path d="M227.134,270.503c-2.532,1.101-3.706,4.015-2.604,6.547c0.011,0.026,1.047,2.682-0.077,5.135
		c-0.907,1.982-3.081,3.578-6.461,4.743c-2.61,0.9-3.997,3.747-3.097,6.357c0.714,2.071,2.652,3.372,4.727,3.372
		c0.54,0,1.09-0.088,1.63-0.274c6.166-2.126,10.335-5.574,12.39-10.247c2.807-6.382,0.373-12.349,0.086-13.008
		C232.625,270.595,229.665,269.403,227.134,270.503z"/>
	<path d="M220.182,199.935c3.451-7.849,0.464-15.175,0.111-15.984c-1.101-2.532-4.056-3.716-6.589-2.615
		c-2.532,1.101-3.702,4.023-2.602,6.556c0.017,0.042,1.668,4.167-0.114,8.106c-1.395,3.081-4.616,5.51-9.576,7.22
		c-2.61,0.9-3.997,3.747-3.097,6.357c0.714,2.071,2.652,3.372,4.727,3.372c0.54,0,1.09-0.088,1.63-0.274
		C212.422,209.999,217.64,205.714,220.182,199.935z"/>
	<path d="M370.095,197.987c-2.532,1.101-3.709,4.007-2.608,6.54c0.008,0.02,0.779,2.035-0.056,3.845
		c-0.866,1.875-3.255,3.029-5.106,3.667c-2.61,0.9-3.997,3.747-3.097,6.357c0.714,2.071,2.652,3.372,4.727,3.372
		c0.54,0,1.09-0.088,1.63-0.274c5.476-1.888,9.187-4.971,11.03-9.163c2.525-5.743,0.334-11.119,0.076-11.713
		C375.589,198.085,372.627,196.888,370.095,197.987z"/>
	<path d="M372.125,153.744c3.452-7.848,0.465-15.174,0.112-15.984c-1.101-2.532-4.045-3.694-6.579-2.592
		c-2.532,1.101-3.692,4.047-2.591,6.579c0.017,0.039,1.618,4.074-0.096,7.971c-1.374,3.123-4.608,5.582-9.616,7.308
		c-2.61,0.9-3.997,3.746-3.097,6.357c0.714,2.071,2.652,3.372,4.727,3.372c0.54,0,1.09-0.088,1.63-0.274
		C364.366,163.808,369.584,159.523,372.125,153.744z"/>
	<path d="M278.573,220.854c-2.526,1.077-3.705,4.008-2.647,6.543c0.026,0.063,2.608,6.4-0.163,12.576
		c-2.126,4.739-6.926,8.425-14.266,10.956c-2.61,0.9-3.997,3.747-3.097,6.357c0.714,2.071,2.652,3.372,4.727,3.372
		c0.54,0,1.09-0.088,1.63-0.274c10.133-3.494,16.93-9.039,20.202-16.48c4.498-10.227,0.331-20.046,0.151-20.459
		C284.015,220.925,281.104,219.778,278.573,220.854z"/>
</g>
</svg>