<svg xmlns="http://www.w3.org/2000/svg" viewBox="0 0 1440 320"><path fill="#ff73b5" fill-opacity="1" d="M0,160L18.5,149.3C36.9,139,74,117,111,133.3C147.7,149,185,203,222,213.3C258.5,224,295,192,332,186.7C369.2,181,406,203,443,213.3C480,224,517,224,554,202.7C590.8,181,628,139,665,128C701.5,117,738,139,775,133.3C812.3,128,849,96,886,106.7C923.1,117,960,171,997,197.3C1033.8,224,1071,224,1108,197.3C1144.6,171,1182,117,1218,117.3C1255.4,117,1292,171,1329,197.3C1366.2,224,1403,224,1422,224L1440,224L1440,320L1421.5,320C1403.1,320,1366,320,1329,320C1292.3,320,1255,320,1218,320C1181.5,320,1145,320,1108,320C1070.8,320,1034,320,997,320C960,320,923,320,886,320C849.2,320,812,320,775,320C738.5,320,702,320,665,320C627.7,320,591,320,554,320C516.9,320,480,320,443,320C406.2,320,369,320,332,320C295.4,320,258,320,222,320C184.6,320,148,320,111,320C73.8,320,37,320,18,320L0,320Z"></path></svg>